
<svg version="1.1" id="Layer_1" xmlns="http://www.w3.org/2000/svg" xmlns:xlink="http://www.w3.org/1999/xlink" x="0px" y="0px"
	 viewBox="0 0 512 512" style="enable-background:new 0 0 512 512;" xml:space="preserve">
<style type="text/css">
	.st0{fill:#2282FF;}
</style>
<g>
	<path class="st0" d="M0,0v512h512c0-20.9,0-498.1,0-512H0z M30.1,30.1h451.8v271.1H30.1V30.1z M481.9,481.9H30.1V331.3h451.8V481.9
		z"/>
	<path class="st0" d="M436.7,361.4h-90.4v90.4h90.4V361.4z M406.6,421.6h-30.1v-30.1h30.1V421.6z"/>
	<path class="st0" d="M301.2,361.4h-90.4v90.4h90.4V361.4z M271.1,421.6H241v-30.1h30.1V421.6z"/>
	<path class="st0" d="M165.6,451.8v-90.4H75.3v90.4H165.6z M105.4,391.5h30.1v30.1h-30.1V391.5z"/>
	<path class="st0" d="M256,60.2C148.1,60.2,60.2,148.1,60.2,256v15.1h60.2V241H91c3.1-34.4,16.8-65.8,37.7-90.9l20.8,20.8l21.3-21.3
		L150,128.8c25.1-20.9,56.5-34.6,90.9-37.7v29.4H271V91c34.4,3.1,65.8,16.8,90.9,37.7l-20.8,20.8l21.3,21.3l20.8-20.8
		c20.9,25.1,34.6,56.5,37.7,90.9h-29.4V271h60.2v-15C451.8,148.1,363.9,60.2,256,60.2L256,60.2z"/>
	<path class="st0" d="M259.6,172.5c-16.9-11.1-29.2-17.7-46.9-27.7c-1.5,20.3-2.9,34.1-3,54.4c-0.2,31.4,3.4,42.1,6.5,48
		c11.9,22.2,39.3,30.2,61.1,18.5c22-11.7,30.3-39.2,18.5-61.1C292.7,198.8,285.8,189.8,259.6,172.5L259.6,172.5z M263.1,239.2
		c-7.4,4-16.5,1.1-20.4-6.2c-2.1-4.2-3.2-19.4-2.9-37.4c15.1,9.8,27.2,19.1,29.5,23.2C273.2,226.1,270.4,235.2,263.1,239.2z"/>
</g>
</svg>
