<svg xmlns:dc="http://purl.org/dc/elements/1.1/" xmlns:cc="http://creativecommons.org/ns#" xmlns:rdf="http://www.w3.org/1999/02/22-rdf-syntax-ns#" xmlns:svg="http://www.w3.org/2000/svg" xmlns="http://www.w3.org/2000/svg" xmlns:sodipodi="http://sodipodi.sourceforge.net/DTD/sodipodi-0.dtd" xmlns:inkscape="http://www.inkscape.org/namespaces/inkscape" height="300px" width="300px" fill="#000000" version="1.1" x="0px" y="0px" viewBox="0 0 100 100"><g transform="translate(0,-952.36218)"><path style="font-size:medium;font-style:normal;font-variant:normal;font-weight:normal;font-stretch:normal;text-indent:0;text-align:start;text-decoration:none;line-height:normal;letter-spacing:normal;word-spacing:normal;text-transform:none;direction:ltr;block-progression:tb;writing-mode:lr-tb;text-anchor:start;baseline-shift:baseline;opacity:1;color:#000000;fill:#000000;fill-opacity:1;fill-rule:nonzero;stroke:none;stroke-width:4;marker:none;visibility:visible;display:inline;overflow:visible;enable-background:accumulate;font-family:Sans;-inkscape-font-specification:Sans" d="M 38.8125 13 A 2.0001999 2.0001999 0 0 0 37.28125 14 L 26.28125 33 A 2.0001999 2.0001999 0 0 0 25.90625 33.84375 C 25.330167 34.763734 25 35.845011 25 37 L 25 47.40625 C 15.884609 49.262156 9 57.345243 9 67 C 9 78.022 17.977994 87 29 87 C 39.343852 87 47.895049 79.0822 48.90625 69 L 85 69 C 88.289405 69 91 66.2894 91 63 L 91 37 C 91 35.766471 90.618686 34.614568 89.96875 33.65625 A 2.0025009 2.0025009 0 0 0 89.6875 32.90625 L 77.6875 13.90625 A 2.0001999 2.0001999 0 0 0 76 13 L 39 13 A 2.0001999 2.0001999 0 0 0 38.8125 13 z M 40.125 17 L 74.90625 17 L 83.75 31 L 70.9375 31 A 2.0002 2.0002 0 0 0 68.9375 32.8125 C 68.510158 37.97362 64.285897 42 59 42 L 57 42 C 51.714103 42 47.489842 37.97362 47.0625 32.8125 A 2.0002 2.0002 0 0 0 45.0625 31 L 32.03125 31 L 40.125 17 z M 31 35 L 43.40625 35 C 44.795766 41.26448 50.323907 46 57 46 L 59 46 C 65.676093 46 71.204234 41.26448 72.59375 35 L 85 35 C 86.142593 35 87 35.85741 87 37 L 87 63 C 87 64.1426 86.142593 65 85 65 L 48.90625 65 C 47.895049 54.917812 39.343852 47 29 47 L 29 37 C 29 35.85741 29.857407 35 31 35 z M 29 51 C 37.860245 51 45 58.1398 45 67 C 45 75.8603 37.860245 83 29 83 C 20.139755 83 13 75.8603 13 67 C 13 58.1398 20.139755 51 29 51 z M 28.78125 56.96875 A 2.0001999 2.0001999 0 0 0 27 59 L 27 68 A 2.0001999 2.0001999 0 1 0 31 68 L 31 59 A 2.0001999 2.0001999 0 0 0 28.78125 56.96875 z M 28.78125 72.96875 A 2.0001998 2.0001998 0 0 0 27 75 L 27 76 A 2.0001998 2.0001998 0 1 0 31 76 L 31 75 A 2.0001998 2.0001998 0 0 0 28.78125 72.96875 z " transform="translate(0,952.36218)"/></g></svg>