<svg height='300px' width='300px'  fill="#f1612a" xmlns="http://www.w3.org/2000/svg" xmlns:xlink="http://www.w3.org/1999/xlink" version="1.1" x="0px" y="0px" viewBox="0 0 20 20" enable-background="new 0 0 20 20" xml:space="preserve"><g><path fill="#f1612a" d="M19,9c0-5-4-9-9-9v2c3.9,0,7,3.1,7,7h-1l2,2l2-2H19z"></path><path fill="#f1612a" d="M3,11h1L2,9l-2,2h1c0,5,4,9,9,9v-2C6.1,18,3,14.9,3,11z"></path><path fill="#f1612a" d="M12,9h-2l1.8-2.4c0.3-0.4,0.2-1.1-0.2-1.4c-0.4-0.3-1.1-0.2-1.4,0.2l-3,4c-0.2,0.3-0.3,0.7-0.1,1   C7.3,10.8,7.6,11,8,11h2l-1.8,2.4c-0.3,0.4-0.3,1.1,0.2,1.4c0.7,0.4,1.2,0.1,1.4-0.2l3-4c0.2-0.3,0.3-0.7,0.1-1   C12.7,9.2,12.4,9,12,9z"></path></g></svg>