<svg id="Layer_1" enable-background="new 0 0 511.77 511.77" height="512" viewBox="0 0 511.77 511.77" width="512" xmlns="http://www.w3.org/2000/svg"><g><g><path d="m466.885 433.458c-4.143 0-7.5 3.357-7.5 7.5v7.312c0 5.79-4.71 10.5-10.5 10.5h-386c-5.79 0-10.5-4.71-10.5-10.5v-104c0-5.79 4.71-10.5 10.5-10.5h242.728c9.931-.344 9.923-14.66 0-15h-242.728c-14.061 0-25.5 11.439-25.5 25.5v104c0 14.061 11.439 25.5 25.5 25.5h5.5v20.504c0 9.647 7.849 17.496 17.497 17.496h45.22c9.931-.344 9.923-14.66 0-15h-45.22c-1.376 0-2.497-1.12-2.497-2.496v-20.504h345v20.504c0 1.376-1.12 2.496-2.496 2.496h-259.625c-9.931.344-9.923 14.66 0 15h259.625c9.647 0 17.496-7.849 17.496-17.496v-20.504h5.5c14.061 0 25.5-11.439 25.5-25.5v-7.312c0-4.143-3.358-7.5-7.5-7.5z"/><path d="m448.885 318.77h-49.109v-162.127c27.581-9.084 21.875-49.179-7.5-49.873-29.381.697-35.076 40.794-7.5 49.873v162.127h-42.777c-9.931.344-9.923 14.66 0 15h106.887c5.79 0 10.5 4.71 10.5 10.5v61.525c.344 9.931 14.66 9.923 15 0v-61.525c-.001-14.061-11.441-25.5-25.501-25.5zm-56.61-197c5.79 0 10.5 4.71 10.5 10.5-.576 13.93-20.426 13.926-21 0 0-5.79 4.71-10.5 10.5-10.5z"/><path d="m330.826 41.98c31.752-36.023 91.15-36.019 122.898.001 2.792 3.072 7.538 3.286 10.595.507 3.065-2.785 3.292-7.528.507-10.595-37.483-42.527-107.624-42.523-145.102.001-2.786 3.065-2.559 7.809.508 10.594 3.066 2.785 7.809 2.56 10.594-.508z"/><path d="m429.05 64.404c2.792 3.073 7.538 3.286 10.594.506 3.065-2.785 3.292-7.529.506-10.594-24.74-28.061-71.012-28.057-95.749 0-2.786 3.064-2.56 7.809.506 10.594 3.064 2.788 7.81 2.561 10.594-.506 19.009-21.557 54.541-21.555 73.549 0z"/><path d="m392.275 65.704c-9.037 0-17.699 3.837-23.766 10.527-2.782 3.068-2.551 7.812.518 10.594 3.066 2.782 7.81 2.553 10.594-.518 6.421-7.401 18.886-7.401 25.308 0 2.789 3.075 7.535 3.294 10.594.518 3.068-2.782 3.3-7.525.518-10.594-6.067-6.69-14.729-10.527-23.766-10.527z"/><path d="m279.998 400.843c-29.857 1.24-29.834 43.771 0 45h124c29.857-1.24 29.834-43.771 0-45zm131.5 22.5c0 4.136-3.364 7.5-7.5 7.5h-124c-9.929-.353-9.922-14.65 0-15h124c4.136 0 7.5 3.364 7.5 7.5z"/><path d="m82.068 397.324c0 12.406 10.093 22.5 22.5 22.5 29.849-1.236 29.841-43.769 0-45-12.406 0-22.5 10.094-22.5 22.5zm30 0c0 4.136-3.364 7.5-7.5 7.5-9.926-.352-9.924-14.65 0-15 4.136 0 7.5 3.365 7.5 7.5z"/><path d="m147.385 397.324c0 12.406 10.093 22.5 22.5 22.5 29.849-1.236 29.841-43.769 0-45-12.407 0-22.5 10.094-22.5 22.5zm30 0c0 4.136-3.364 7.5-7.5 7.5-9.926-.352-9.924-14.65 0-15 4.136 0 7.5 3.365 7.5 7.5z"/><path d="m412.958 361.989h-141.919c-9.931.344-9.923 14.66 0 15h141.919c9.931-.343 9.923-14.66 0-15z"/></g></g></svg>